<?xml version="1.0" encoding="UTF-8" standalone="no"?>
<!DOCTYPE svg PUBLIC "-//W3C//DTD SVG 1.1//EN"
 "http://www.w3.org/Graphics/SVG/1.1/DTD/svg11.dtd">
<!-- Generated by graphviz version 2.38.0 (20140413.2041)
 -->
<!-- Title: G Pages: 1 -->
<svg width="2044pt" height="833pt"
 viewBox="0.00 0.00 2043.84 832.92" xmlns="http://www.w3.org/2000/svg" xmlns:xlink="http://www.w3.org/1999/xlink">
<g id="graph0" class="graph" transform="scale(1 1) rotate(0) translate(4 828.921)">
<title>G</title>
<polygon fill="white" stroke="none" points="-4,4 -4,-828.921 2039.84,-828.921 2039.84,4 -4,4"/>
<g id="clust1" class="cluster"><title>cluster_G</title>
<path fill="#808080" fill-opacity="0.094118" stroke="black" d="M31.8404,-8C31.8404,-8 2015.84,-8 2015.84,-8 2021.84,-8 2027.84,-14 2027.84,-20 2027.84,-20 2027.84,-804.921 2027.84,-804.921 2027.84,-810.921 2021.84,-816.921 2015.84,-816.921 2015.84,-816.921 31.8404,-816.921 31.8404,-816.921 25.8404,-816.921 19.8404,-810.921 19.8404,-804.921 19.8404,-804.921 19.8404,-20 19.8404,-20 19.8404,-14 25.8404,-8 31.8404,-8"/>
</g>
<g id="clust2" class="cluster"><title>cluster_prior_engine</title>
<path fill="#808080" fill-opacity="0.094118" stroke="black" d="M49.8404,-16C49.8404,-16 2007.84,-16 2007.84,-16 2013.84,-16 2019.84,-22 2019.84,-28 2019.84,-28 2019.84,-752.921 2019.84,-752.921 2019.84,-758.921 2013.84,-764.921 2007.84,-764.921 2007.84,-764.921 49.8404,-764.921 49.8404,-764.921 43.8404,-764.921 37.8404,-758.921 37.8404,-752.921 37.8404,-752.921 37.8404,-28 37.8404,-28 37.8404,-22 43.8404,-16 49.8404,-16"/>
<text text-anchor="middle" x="1028.84" y="-749.721" font-family="Times,serif" font-size="14.00">prior_engine</text>
</g>
<g id="clust3" class="cluster"><title>cluster_prior_engine__MapPrior</title>
<path fill="#808080" fill-opacity="0.094118" stroke="black" d="M915.84,-214.48C915.84,-214.48 1099.84,-214.48 1099.84,-214.48 1105.84,-214.48 1111.84,-220.48 1111.84,-226.48 1111.84,-226.48 1111.84,-295.22 1111.84,-295.22 1111.84,-301.22 1105.84,-307.22 1099.84,-307.22 1099.84,-307.22 915.84,-307.22 915.84,-307.22 909.84,-307.22 903.84,-301.22 903.84,-295.22 903.84,-295.22 903.84,-226.48 903.84,-226.48 903.84,-220.48 909.84,-214.48 915.84,-214.48"/>
<text text-anchor="middle" x="1007.84" y="-292.02" font-family="Times,serif" font-size="14.00">prior_engine.MapPrior</text>
</g>
<g id="clust4" class="cluster"><title>cluster_prior_engine__Prior</title>
<path fill="#808080" fill-opacity="0.094118" stroke="black" d="M848.84,-24C848.84,-24 1242.84,-24 1242.84,-24 1248.84,-24 1254.84,-30 1254.84,-36 1254.84,-36 1254.84,-194.48 1254.84,-194.48 1254.84,-200.48 1248.84,-206.48 1242.84,-206.48 1242.84,-206.48 848.84,-206.48 848.84,-206.48 842.84,-206.48 836.84,-200.48 836.84,-194.48 836.84,-194.48 836.84,-36 836.84,-36 836.84,-30 842.84,-24 848.84,-24"/>
<text text-anchor="middle" x="1045.84" y="-191.28" font-family="Times,serif" font-size="14.00">prior_engine.Prior</text>
</g>
<g id="clust5" class="cluster"><title>cluster_prior_engine__PriorEngine</title>
<path fill="#808080" fill-opacity="0.094118" stroke="black" d="M180.84,-489.701C180.84,-489.701 964.84,-489.701 964.84,-489.701 970.84,-489.701 976.84,-495.701 976.84,-501.701 976.84,-501.701 976.84,-660.181 976.84,-660.181 976.84,-666.181 970.84,-672.181 964.84,-672.181 964.84,-672.181 180.84,-672.181 180.84,-672.181 174.84,-672.181 168.84,-666.181 168.84,-660.181 168.84,-660.181 168.84,-501.701 168.84,-501.701 168.84,-495.701 174.84,-489.701 180.84,-489.701"/>
<text text-anchor="middle" x="572.84" y="-656.981" font-family="Times,serif" font-size="14.00">prior_engine.PriorEngine</text>
</g>
<g id="clust6" class="cluster"><title>cluster_prior_engine__RoughnessPrior</title>
<path fill="#808080" fill-opacity="0.094118" stroke="black" d="M69.8404,-214.48C69.8404,-214.48 883.84,-214.48 883.84,-214.48 889.84,-214.48 895.84,-220.48 895.84,-226.48 895.84,-226.48 895.84,-387.96 895.84,-387.96 895.84,-393.96 889.84,-399.96 883.84,-399.96 883.84,-399.96 69.8404,-399.96 69.8404,-399.96 63.8404,-399.96 57.8404,-393.96 57.8404,-387.96 57.8404,-387.96 57.8404,-226.48 57.8404,-226.48 57.8404,-220.48 63.8404,-214.48 69.8404,-214.48"/>
<text text-anchor="middle" x="476.84" y="-384.76" font-family="Times,serif" font-size="14.00">prior_engine.RoughnessPrior</text>
</g>
<g id="clust7" class="cluster"><title>cluster_prior_engine__SoilMoisturePrior</title>
<path fill="#808080" fill-opacity="0.094118" stroke="black" d="M1335.84,-24C1335.84,-24 1999.84,-24 1999.84,-24 2005.84,-24 2011.84,-30 2011.84,-36 2011.84,-36 2011.84,-295.22 2011.84,-295.22 2011.84,-301.22 2005.84,-307.22 1999.84,-307.22 1999.84,-307.22 1335.84,-307.22 1335.84,-307.22 1329.84,-307.22 1323.84,-301.22 1323.84,-295.22 1323.84,-295.22 1323.84,-36 1323.84,-36 1323.84,-30 1329.84,-24 1335.84,-24"/>
<text text-anchor="middle" x="1667.84" y="-292.02" font-family="Times,serif" font-size="14.00">prior_engine.SoilMoisturePrior</text>
</g>
<!-- prior_engine -->
<g id="node1" class="node"><title>prior_engine</title>
<ellipse fill="#ffffff" fill-opacity="0.698039" stroke="black" cx="805.84" cy="-790.921" rx="55.7903" ry="18"/>
<text text-anchor="middle" x="805.84" y="-787.221" font-family="Times,serif" font-size="14.00" fill="#000000">prior_engine</text>
</g>
<!-- prior_engine__MapPrior -->
<g id="node2" class="node"><title>prior_engine__MapPrior</title>
<ellipse fill="#fecccc" fill-opacity="0.698039" stroke="black" cx="1007.84" cy="-342.09" rx="96.3333" ry="26.7407"/>
<text text-anchor="middle" x="1007.84" y="-345.89" font-family="Times,serif" font-size="14.00" fill="#000000">MapPrior</text>
<text text-anchor="middle" x="1007.84" y="-330.89" font-family="Times,serif" font-size="14.00" fill="#000000">(prior_engine.py:161)</text>
</g>
<!-- prior_engine&#45;&gt;prior_engine__MapPrior -->
<g id="edge19" class="edge"><title>prior_engine&#45;&gt;prior_engine__MapPrior</title>
<path fill="none" stroke="#838b8b" stroke-dasharray="5,2" d="M859.351,-785.518C893.536,-781.771 933.96,-775.305 947.84,-764.921 1005.2,-722.005 1007.84,-686.952 1007.84,-615.311 1007.84,-615.311 1007.84,-615.311 1007.84,-523.571 1007.84,-473.521 1007.84,-415.664 1007.84,-379.228"/>
<polygon fill="#838b8b" stroke="#838b8b" points="1011.34,-379.093 1007.84,-369.093 1004.34,-379.093 1011.34,-379.093"/>
</g>
<!-- prior_engine__Prior -->
<g id="node3" class="node"><title>prior_engine__Prior</title>
<ellipse fill="#fecccc" fill-opacity="0.698039" stroke="black" cx="1217.84" cy="-249.35" rx="96.3333" ry="26.7407"/>
<text text-anchor="middle" x="1217.84" y="-253.15" font-family="Times,serif" font-size="14.00" fill="#000000">Prior</text>
<text text-anchor="middle" x="1217.84" y="-238.15" font-family="Times,serif" font-size="14.00" fill="#000000">(prior_engine.py:140)</text>
</g>
<!-- prior_engine&#45;&gt;prior_engine__Prior -->
<g id="edge15" class="edge"><title>prior_engine&#45;&gt;prior_engine__Prior</title>
<path fill="none" stroke="#838b8b" stroke-dasharray="5,2" d="M749.96,-789.309C571.801,-785.869 28.8404,-763.249 28.8404,-615.311 28.8404,-615.311 28.8404,-615.311 28.8404,-433.831 28.8404,-379.957 12.1296,-349.317 53.8404,-315.22 65.2606,-305.885 1101.58,-310.985 1115.84,-307.22 1136.71,-301.712 1157.86,-290.952 1175.44,-280.26"/>
<polygon fill="#838b8b" stroke="#838b8b" points="1177.69,-282.984 1184.3,-274.704 1173.97,-277.056 1177.69,-282.984"/>
</g>
<!-- prior_engine__PriorEngine -->
<g id="node4" class="node"><title>prior_engine__PriorEngine</title>
<ellipse fill="#fecccc" fill-opacity="0.698039" stroke="black" cx="805.84" cy="-707.051" rx="91.4341" ry="26.7407"/>
<text text-anchor="middle" x="805.84" y="-710.851" font-family="Times,serif" font-size="14.00" fill="#000000">PriorEngine</text>
<text text-anchor="middle" x="805.84" y="-695.851" font-family="Times,serif" font-size="14.00" fill="#000000">(prior_engine.py:33)</text>
</g>
<!-- prior_engine&#45;&gt;prior_engine__PriorEngine -->
<g id="edge14" class="edge"><title>prior_engine&#45;&gt;prior_engine__PriorEngine</title>
<path fill="none" stroke="#838b8b" stroke-dasharray="5,2" d="M805.84,-772.558C805.84,-764.267 805.84,-754.019 805.84,-744.151"/>
<polygon fill="#838b8b" stroke="#838b8b" points="809.34,-744.103 805.84,-734.103 802.34,-744.103 809.34,-744.103"/>
</g>
<!-- prior_engine__RoughnessPrior -->
<g id="node5" class="node"><title>prior_engine__RoughnessPrior</title>
<ellipse fill="#fecccc" fill-opacity="0.698039" stroke="black" cx="466.84" cy="-434.831" rx="96.3333" ry="26.7407"/>
<text text-anchor="middle" x="466.84" y="-438.631" font-family="Times,serif" font-size="14.00" fill="#000000">RoughnessPrior</text>
<text text-anchor="middle" x="466.84" y="-423.631" font-family="Times,serif" font-size="14.00" fill="#000000">(prior_engine.py:342)</text>
</g>
<!-- prior_engine&#45;&gt;prior_engine__RoughnessPrior -->
<g id="edge16" class="edge"><title>prior_engine&#45;&gt;prior_engine__RoughnessPrior</title>
<path fill="none" stroke="#838b8b" stroke-dasharray="5,2" d="M857.227,-783.659C873.674,-779.986 891.357,-774.161 905.84,-764.921 950.53,-736.41 963.162,-722.156 980.84,-672.181 994.364,-633.951 1008.53,-519.326 980.84,-489.701 949.358,-456.017 612.354,-469.061 566.84,-461.701 558.849,-460.408 550.566,-458.767 542.343,-456.94"/>
<polygon fill="#838b8b" stroke="#838b8b" points="542.898,-453.476 532.366,-454.631 541.319,-460.296 542.898,-453.476"/>
</g>
<!-- prior_engine__SoilMoisturePrior -->
<g id="node6" class="node"><title>prior_engine__SoilMoisturePrior</title>
<ellipse fill="#fecccc" fill-opacity="0.698039" stroke="black" cx="1645.84" cy="-342.09" rx="96.3333" ry="26.7407"/>
<text text-anchor="middle" x="1645.84" y="-345.89" font-family="Times,serif" font-size="14.00" fill="#000000">SoilMoisturePrior</text>
<text text-anchor="middle" x="1645.84" y="-330.89" font-family="Times,serif" font-size="14.00" fill="#000000">(prior_engine.py:186)</text>
</g>
<!-- prior_engine&#45;&gt;prior_engine__SoilMoisturePrior -->
<g id="edge18" class="edge"><title>prior_engine&#45;&gt;prior_engine__SoilMoisturePrior</title>
<path fill="none" stroke="#838b8b" stroke-dasharray="5,2" d="M857.722,-784.099C991.335,-767.673 1336.84,-715.508 1336.84,-615.311 1336.84,-615.311 1336.84,-615.311 1336.84,-523.571 1336.84,-422.718 1461.09,-377.198 1552.01,-357.39"/>
<polygon fill="#838b8b" stroke="#838b8b" points="1552.75,-360.812 1561.81,-355.325 1551.31,-353.962 1552.75,-360.812"/>
</g>
<!-- prior_engine__get_mean_state_vector -->
<g id="node7" class="node"><title>prior_engine__get_mean_state_vector</title>
<ellipse fill="#fecccc" fill-opacity="0.698039" stroke="black" cx="595.84" cy="-707.051" rx="100.318" ry="26.7407"/>
<text text-anchor="middle" x="595.84" y="-710.851" font-family="Times,serif" font-size="14.00" fill="#000000">get_mean_state_vector</text>
<text text-anchor="middle" x="595.84" y="-695.851" font-family="Times,serif" font-size="14.00" fill="#000000">(prior_engine.py:375)</text>
</g>
<!-- prior_engine&#45;&gt;prior_engine__get_mean_state_vector -->
<g id="edge17" class="edge"><title>prior_engine&#45;&gt;prior_engine__get_mean_state_vector</title>
<path fill="none" stroke="#838b8b" stroke-dasharray="5,2" d="M757.081,-782.031C737.844,-777.874 715.926,-772.128 696.84,-764.921 676.973,-757.419 656.06,-747.239 638.383,-737.564"/>
<polygon fill="#838b8b" stroke="#838b8b" points="639.893,-734.398 629.457,-732.568 636.474,-740.507 639.893,-734.398"/>
</g>
<!-- prior_engine&#45;&gt;prior_engine__get_mean_state_vector -->
<g id="edge36" class="edge"><title>prior_engine&#45;&gt;prior_engine__get_mean_state_vector</title>
<path fill="none" stroke="#000000" d="M762.598,-779.385C747.302,-775.549 730.159,-770.706 714.84,-764.921 693.658,-756.922 671.287,-745.879 651.663,-735.651"/>
<polygon fill="#000000" stroke="#000000" points="653.042,-732.422 642.562,-730.868 649.786,-738.618 653.042,-732.422"/>
</g>
<!-- prior_engine__MapPrior&#45;&gt;prior_engine__Prior -->
<g id="edge50" class="edge"><title>prior_engine__MapPrior&#45;&gt;prior_engine__Prior</title>
<path fill="none" stroke="#000000" d="M1074.3,-322.602C1088.22,-318.079 1102.66,-312.889 1115.84,-307.22 1134.23,-299.311 1153.6,-289.045 1170.47,-279.416"/>
<polygon fill="#000000" stroke="#000000" points="1172.66,-282.192 1179.56,-274.151 1169.15,-276.134 1172.66,-282.192"/>
</g>
<!-- prior_engine__MapPrior____init__ -->
<g id="node8" class="node"><title>prior_engine__MapPrior____init__</title>
<ellipse fill="#ff9999" fill-opacity="0.698039" stroke="black" cx="1007.84" cy="-249.35" rx="96.3333" ry="26.7407"/>
<text text-anchor="middle" x="1007.84" y="-253.15" font-family="Times,serif" font-size="14.00" fill="#000000">__init__</text>
<text text-anchor="middle" x="1007.84" y="-238.15" font-family="Times,serif" font-size="14.00" fill="#000000">(prior_engine.py:165)</text>
</g>
<!-- prior_engine__MapPrior&#45;&gt;prior_engine__MapPrior____init__ -->
<g id="edge13" class="edge"><title>prior_engine__MapPrior&#45;&gt;prior_engine__MapPrior____init__</title>
<path fill="none" stroke="#838b8b" stroke-dasharray="5,2" d="M1007.84,-314.845C1007.84,-305.927 1007.84,-295.803 1007.84,-286.262"/>
<polygon fill="#838b8b" stroke="#838b8b" points="1011.34,-286.224 1007.84,-276.224 1004.34,-286.224 1011.34,-286.224"/>
</g>
<!-- prior_engine__Prior____init__ -->
<g id="node9" class="node"><title>prior_engine__Prior____init__</title>
<ellipse fill="#ff9999" fill-opacity="0.698039" stroke="black" cx="1150.84" cy="-148.61" rx="96.3333" ry="26.7407"/>
<text text-anchor="middle" x="1150.84" y="-152.41" font-family="Times,serif" font-size="14.00" fill="#000000">__init__</text>
<text text-anchor="middle" x="1150.84" y="-137.41" font-family="Times,serif" font-size="14.00" fill="#000000">(prior_engine.py:141)</text>
</g>
<!-- prior_engine__Prior&#45;&gt;prior_engine__Prior____init__ -->
<g id="edge22" class="edge"><title>prior_engine__Prior&#45;&gt;prior_engine__Prior____init__</title>
<path fill="none" stroke="#838b8b" stroke-dasharray="5,2" d="M1200.41,-222.665C1192.35,-210.78 1182.65,-196.494 1173.99,-183.721"/>
<polygon fill="#838b8b" stroke="#838b8b" points="1176.69,-181.476 1168.18,-175.167 1170.9,-185.407 1176.69,-181.476"/>
</g>
<!-- prior_engine__Prior___check -->
<g id="node10" class="node"><title>prior_engine__Prior___check</title>
<ellipse fill="#ff9999" fill-opacity="0.698039" stroke="black" cx="1150.84" cy="-58.8701" rx="96.3333" ry="26.7407"/>
<text text-anchor="middle" x="1150.84" y="-62.6701" font-family="Times,serif" font-size="14.00" fill="#000000">_check</text>
<text text-anchor="middle" x="1150.84" y="-47.6701" font-family="Times,serif" font-size="14.00" fill="#000000">(prior_engine.py:146)</text>
</g>
<!-- prior_engine__Prior&#45;&gt;prior_engine__Prior___check -->
<g id="edge20" class="edge"><title>prior_engine__Prior&#45;&gt;prior_engine__Prior___check</title>
<path fill="none" stroke="#838b8b" stroke-dasharray="5,2" d="M1245.71,-223.382C1249.85,-218.235 1253.51,-212.524 1255.84,-206.48 1269.41,-171.346 1274.53,-154.44 1255.84,-121.74 1247.11,-106.46 1232.97,-94.5783 1217.85,-85.4991"/>
<polygon fill="#838b8b" stroke="#838b8b" points="1219.31,-82.3038 1208.87,-80.4728 1215.89,-88.4118 1219.31,-82.3038"/>
</g>
<!-- prior_engine__Prior__initialize -->
<g id="node11" class="node"><title>prior_engine__Prior__initialize</title>
<ellipse fill="#ff9999" fill-opacity="0.698039" stroke="black" cx="940.84" cy="-148.61" rx="96.3333" ry="26.7407"/>
<text text-anchor="middle" x="940.84" y="-152.41" font-family="Times,serif" font-size="14.00" fill="#000000">initialize</text>
<text text-anchor="middle" x="940.84" y="-137.41" font-family="Times,serif" font-size="14.00" fill="#000000">(prior_engine.py:150)</text>
</g>
<!-- prior_engine__Prior&#45;&gt;prior_engine__Prior__initialize -->
<g id="edge21" class="edge"><title>prior_engine__Prior&#45;&gt;prior_engine__Prior__initialize</title>
<path fill="none" stroke="#838b8b" stroke-dasharray="5,2" d="M1161.77,-227.425C1147,-222.551 1130.96,-217.818 1115.84,-214.48 1085.26,-207.732 1075.71,-215.886 1045.84,-206.48 1025.3,-200.011 1004.14,-189.426 986.24,-179.132"/>
<polygon fill="#838b8b" stroke="#838b8b" points="987.591,-175.866 977.2,-173.798 984.034,-181.894 987.591,-175.866"/>
</g>
<!-- prior_engine__PriorEngine____init__ -->
<g id="node12" class="node"><title>prior_engine__PriorEngine____init__</title>
<ellipse fill="#ff9999" fill-opacity="0.698039" stroke="black" cx="675.84" cy="-614.311" rx="91.4341" ry="26.7407"/>
<text text-anchor="middle" x="675.84" y="-618.111" font-family="Times,serif" font-size="14.00" fill="#000000">__init__</text>
<text text-anchor="middle" x="675.84" y="-603.111" font-family="Times,serif" font-size="14.00" fill="#000000">(prior_engine.py:35)</text>
</g>
<!-- prior_engine__PriorEngine&#45;&gt;prior_engine__PriorEngine____init__ -->
<g id="edge10" class="edge"><title>prior_engine__PriorEngine&#45;&gt;prior_engine__PriorEngine____init__</title>
<path fill="none" stroke="#838b8b" stroke-dasharray="5,2" d="M771.344,-681.972C755.33,-670.795 736.122,-657.387 719.144,-645.537"/>
<polygon fill="#838b8b" stroke="#838b8b" points="720.701,-642.355 710.498,-639.502 716.695,-648.095 720.701,-642.355"/>
</g>
<!-- prior_engine__PriorEngine___check -->
<g id="node13" class="node"><title>prior_engine__PriorEngine___check</title>
<ellipse fill="#ff9999" fill-opacity="0.698039" stroke="black" cx="877.84" cy="-524.571" rx="91.4341" ry="26.7407"/>
<text text-anchor="middle" x="877.84" y="-528.371" font-family="Times,serif" font-size="14.00" fill="#000000">_check</text>
<text text-anchor="middle" x="877.84" y="-513.371" font-family="Times,serif" font-size="14.00" fill="#000000">(prior_engine.py:43)</text>
</g>
<!-- prior_engine__PriorEngine&#45;&gt;prior_engine__PriorEngine___check -->
<g id="edge7" class="edge"><title>prior_engine__PriorEngine&#45;&gt;prior_engine__PriorEngine___check</title>
<path fill="none" stroke="#838b8b" stroke-dasharray="5,2" d="M825.864,-680.728C827.675,-677.923 829.375,-675.043 830.84,-672.181 849.221,-636.267 862.266,-591.737 869.877,-561.236"/>
<polygon fill="#838b8b" stroke="#838b8b" points="873.292,-562.006 872.25,-551.462 866.489,-560.354 873.292,-562.006"/>
</g>
<!-- prior_engine__PriorEngine___concat_priors -->
<g id="node14" class="node"><title>prior_engine__PriorEngine___concat_priors</title>
<ellipse fill="#ff9999" fill-opacity="0.698039" stroke="black" cx="472.84" cy="-524.571" rx="96.3333" ry="26.7407"/>
<text text-anchor="middle" x="472.84" y="-528.371" font-family="Times,serif" font-size="14.00" fill="#000000">_concat_priors</text>
<text text-anchor="middle" x="472.84" y="-513.371" font-family="Times,serif" font-size="14.00" fill="#000000">(prior_engine.py:119)</text>
</g>
<!-- prior_engine__PriorEngine&#45;&gt;prior_engine__PriorEngine___concat_priors -->
<g id="edge8" class="edge"><title>prior_engine__PriorEngine&#45;&gt;prior_engine__PriorEngine___concat_priors</title>
<path fill="none" stroke="#838b8b" stroke-dasharray="5,2" d="M806.043,-680.012C805.706,-649.152 803.161,-600.285 790.84,-587.441 757.61,-552.797 624.845,-561.189 577.84,-551.441 569.359,-549.682 560.524,-547.716 551.739,-545.676"/>
<polygon fill="#838b8b" stroke="#838b8b" points="552.399,-542.236 541.863,-543.348 550.793,-549.049 552.399,-542.236"/>
</g>
<!-- prior_engine__PriorEngine___get_config -->
<g id="node15" class="node"><title>prior_engine__PriorEngine___get_config</title>
<ellipse fill="#ff9999" fill-opacity="0.698039" stroke="black" cx="677.84" cy="-524.571" rx="91.4341" ry="26.7407"/>
<text text-anchor="middle" x="677.84" y="-528.371" font-family="Times,serif" font-size="14.00" fill="#000000">_get_config</text>
<text text-anchor="middle" x="677.84" y="-513.371" font-family="Times,serif" font-size="14.00" fill="#000000">(prior_engine.py:66)</text>
</g>
<!-- prior_engine__PriorEngine&#45;&gt;prior_engine__PriorEngine___get_config -->
<g id="edge12" class="edge"><title>prior_engine__PriorEngine&#45;&gt;prior_engine__PriorEngine___get_config</title>
<path fill="none" stroke="#838b8b" stroke-dasharray="5,2" d="M814.903,-680.252C822.186,-654.626 828.571,-615.245 810.84,-587.441 798.555,-568.176 778.544,-554.815 757.731,-545.586"/>
<polygon fill="#838b8b" stroke="#838b8b" points="759.04,-542.34 748.462,-541.754 756.367,-548.809 759.04,-542.34"/>
</g>
<!-- prior_engine__PriorEngine___get_prior -->
<g id="node16" class="node"><title>prior_engine__PriorEngine___get_prior</title>
<ellipse fill="#ff9999" fill-opacity="0.698039" stroke="black" cx="267.84" cy="-524.571" rx="91.4341" ry="26.7407"/>
<text text-anchor="middle" x="267.84" y="-528.371" font-family="Times,serif" font-size="14.00" fill="#000000">_get_prior</text>
<text text-anchor="middle" x="267.84" y="-513.371" font-family="Times,serif" font-size="14.00" fill="#000000">(prior_engine.py:79)</text>
</g>
<!-- prior_engine__PriorEngine&#45;&gt;prior_engine__PriorEngine___get_prior -->
<g id="edge9" class="edge"><title>prior_engine__PriorEngine&#45;&gt;prior_engine__PriorEngine___get_prior</title>
<path fill="none" stroke="#838b8b" stroke-dasharray="5,2" d="M793.716,-680.407C792.651,-677.664 791.666,-674.887 790.84,-672.181 779.682,-635.597 804.039,-613.282 775.84,-587.441 708.737,-525.947 457.538,-566.891 367.84,-551.441 359.302,-549.97 350.424,-548.133 341.639,-546.12"/>
<polygon fill="#838b8b" stroke="#838b8b" points="342.322,-542.685 331.784,-543.783 340.707,-549.496 342.322,-542.685"/>
</g>
<!-- prior_engine__PriorEngine__get_priors -->
<g id="node17" class="node"><title>prior_engine__PriorEngine__get_priors</title>
<ellipse fill="#ff9999" fill-opacity="0.698039" stroke="black" cx="473.84" cy="-614.311" rx="91.4341" ry="26.7407"/>
<text text-anchor="middle" x="473.84" y="-618.111" font-family="Times,serif" font-size="14.00" fill="#000000">get_priors</text>
<text text-anchor="middle" x="473.84" y="-603.111" font-family="Times,serif" font-size="14.00" fill="#000000">(prior_engine.py:49)</text>
</g>
<!-- prior_engine__PriorEngine&#45;&gt;prior_engine__PriorEngine__get_priors -->
<g id="edge11" class="edge"><title>prior_engine__PriorEngine&#45;&gt;prior_engine__PriorEngine__get_priors</title>
<path fill="none" stroke="#838b8b" stroke-dasharray="5,2" d="M742.105,-687.788C729.824,-684.821 716.999,-682.097 704.84,-680.181 648.098,-671.237 630.962,-688.347 575.84,-672.181 555.297,-666.156 534.347,-655.425 516.821,-644.897"/>
<polygon fill="#838b8b" stroke="#838b8b" points="518.334,-641.717 507.988,-639.435 514.653,-647.671 518.334,-641.717"/>
</g>
<!-- prior_engine__RoughnessPrior&#45;&gt;prior_engine__MapPrior -->
<g id="edge43" class="edge"><title>prior_engine__RoughnessPrior&#45;&gt;prior_engine__MapPrior</title>
<path fill="none" stroke="#000000" d="M557.891,-425.921C620.328,-420.591 705.076,-413.542 779.84,-407.96 806.492,-405.971 874.123,-407.234 899.84,-399.96 921.569,-393.815 943.922,-382.932 962.614,-372.32"/>
<polygon fill="#000000" stroke="#000000" points="964.6,-375.214 971.477,-367.154 961.075,-369.166 964.6,-375.214"/>
</g>
<!-- prior_engine__RoughnessPrior____init__ -->
<g id="node18" class="node"><title>prior_engine__RoughnessPrior____init__</title>
<ellipse fill="#ff9999" fill-opacity="0.698039" stroke="black" cx="791.84" cy="-342.09" rx="96.3333" ry="26.7407"/>
<text text-anchor="middle" x="791.84" y="-345.89" font-family="Times,serif" font-size="14.00" fill="#000000">__init__</text>
<text text-anchor="middle" x="791.84" y="-330.89" font-family="Times,serif" font-size="14.00" fill="#000000">(prior_engine.py:344)</text>
</g>
<!-- prior_engine__RoughnessPrior&#45;&gt;prior_engine__RoughnessPrior____init__ -->
<g id="edge24" class="edge"><title>prior_engine__RoughnessPrior&#45;&gt;prior_engine__RoughnessPrior____init__</title>
<path fill="none" stroke="#838b8b" stroke-dasharray="5,2" d="M558.688,-426.806C598.792,-421.935 645.91,-413.732 686.84,-399.96 707.086,-393.148 728.045,-382.607 745.862,-372.442"/>
<polygon fill="#838b8b" stroke="#838b8b" points="748.001,-375.246 754.873,-367.182 744.472,-369.2 748.001,-375.246"/>
</g>
<!-- prior_engine__RoughnessPrior___map_lut -->
<g id="node19" class="node"><title>prior_engine__RoughnessPrior___map_lut</title>
<ellipse fill="#ff9999" fill-opacity="0.698039" stroke="black" cx="581.84" cy="-249.35" rx="96.3333" ry="26.7407"/>
<text text-anchor="middle" x="581.84" y="-253.15" font-family="Times,serif" font-size="14.00" fill="#000000">_map_lut</text>
<text text-anchor="middle" x="581.84" y="-238.15" font-family="Times,serif" font-size="14.00" fill="#000000">(prior_engine.py:362)</text>
</g>
<!-- prior_engine__RoughnessPrior&#45;&gt;prior_engine__RoughnessPrior___map_lut -->
<g id="edge27" class="edge"><title>prior_engine__RoughnessPrior&#45;&gt;prior_engine__RoughnessPrior___map_lut</title>
<path fill="none" stroke="#838b8b" stroke-dasharray="5,2" d="M457.969,-407.752C450.992,-382.27 444.98,-343.321 461.84,-315.22 465.728,-308.742 470.185,-310.797 476.84,-307.22 494.174,-297.904 513.089,-287.678 530.03,-278.497"/>
<polygon fill="#838b8b" stroke="#838b8b" points="532.093,-281.36 539.216,-273.517 528.757,-275.206 532.093,-281.36"/>
</g>
<!-- prior_engine__RoughnessPrior___read_lc -->
<g id="node20" class="node"><title>prior_engine__RoughnessPrior___read_lc</title>
<ellipse fill="#ff9999" fill-opacity="0.698039" stroke="black" cx="791.84" cy="-249.35" rx="96.3333" ry="26.7407"/>
<text text-anchor="middle" x="791.84" y="-253.15" font-family="Times,serif" font-size="14.00" fill="#000000">_read_lc</text>
<text text-anchor="middle" x="791.84" y="-238.15" font-family="Times,serif" font-size="14.00" fill="#000000">(prior_engine.py:359)</text>
</g>
<!-- prior_engine__RoughnessPrior&#45;&gt;prior_engine__RoughnessPrior___read_lc -->
<g id="edge25" class="edge"><title>prior_engine__RoughnessPrior&#45;&gt;prior_engine__RoughnessPrior___read_lc</title>
<path fill="none" stroke="#838b8b" stroke-dasharray="5,2" d="M465.212,-407.865C463.892,-376.818 463.988,-327.494 476.84,-315.22 485.284,-307.157 675.58,-310.303 686.84,-307.22 708.32,-301.34 730.261,-290.381 748.495,-279.641"/>
<polygon fill="#838b8b" stroke="#838b8b" points="750.391,-282.584 757.13,-274.409 746.763,-276.598 750.391,-282.584"/>
</g>
<!-- prior_engine__RoughnessPrior___read_lut -->
<g id="node21" class="node"><title>prior_engine__RoughnessPrior___read_lut</title>
<ellipse fill="#ff9999" fill-opacity="0.698039" stroke="black" cx="161.84" cy="-249.35" rx="96.3333" ry="26.7407"/>
<text text-anchor="middle" x="161.84" y="-253.15" font-family="Times,serif" font-size="14.00" fill="#000000">_read_lut</text>
<text text-anchor="middle" x="161.84" y="-238.15" font-family="Times,serif" font-size="14.00" fill="#000000">(prior_engine.py:356)</text>
</g>
<!-- prior_engine__RoughnessPrior&#45;&gt;prior_engine__RoughnessPrior___read_lut -->
<g id="edge23" class="edge"><title>prior_engine__RoughnessPrior&#45;&gt;prior_engine__RoughnessPrior___read_lut</title>
<path fill="none" stroke="#838b8b" stroke-dasharray="5,2" d="M417.93,-411.479C410.453,-407.781 402.885,-403.873 395.84,-399.96 327.188,-361.83 251.18,-311.664 204.961,-280.208"/>
<polygon fill="#838b8b" stroke="#838b8b" points="206.918,-277.307 196.686,-274.56 202.972,-283.088 206.918,-277.307"/>
</g>
<!-- prior_engine__RoughnessPrior__calc -->
<g id="node22" class="node"><title>prior_engine__RoughnessPrior__calc</title>
<ellipse fill="#ff9999" fill-opacity="0.698039" stroke="black" cx="581.84" cy="-342.09" rx="96.3333" ry="26.7407"/>
<text text-anchor="middle" x="581.84" y="-345.89" font-family="Times,serif" font-size="14.00" fill="#000000">calc</text>
<text text-anchor="middle" x="581.84" y="-330.89" font-family="Times,serif" font-size="14.00" fill="#000000">(prior_engine.py:347)</text>
</g>
<!-- prior_engine__RoughnessPrior&#45;&gt;prior_engine__RoughnessPrior__calc -->
<g id="edge26" class="edge"><title>prior_engine__RoughnessPrior&#45;&gt;prior_engine__RoughnessPrior__calc</title>
<path fill="none" stroke="#838b8b" stroke-dasharray="5,2" d="M497.961,-409.275C511.768,-398.381 528.165,-385.442 542.784,-373.908"/>
<polygon fill="#838b8b" stroke="#838b8b" points="545.012,-376.608 550.695,-367.666 540.676,-371.112 545.012,-376.608"/>
</g>
<!-- prior_engine__RoughnessPrior__save -->
<g id="node23" class="node"><title>prior_engine__RoughnessPrior__save</title>
<ellipse fill="#ff9999" fill-opacity="0.698039" stroke="black" cx="371.84" cy="-249.35" rx="96.3333" ry="26.7407"/>
<text text-anchor="middle" x="371.84" y="-253.15" font-family="Times,serif" font-size="14.00" fill="#000000">save</text>
<text text-anchor="middle" x="371.84" y="-238.15" font-family="Times,serif" font-size="14.00" fill="#000000">(prior_engine.py:368)</text>
</g>
<!-- prior_engine__RoughnessPrior&#45;&gt;prior_engine__RoughnessPrior__save -->
<g id="edge28" class="edge"><title>prior_engine__RoughnessPrior&#45;&gt;prior_engine__RoughnessPrior__save</title>
<path fill="none" stroke="#838b8b" stroke-dasharray="5,2" d="M447.185,-408.304C445.302,-405.538 443.485,-402.724 441.84,-399.96 419.546,-362.491 399.041,-316.755 386.065,-285.789"/>
<polygon fill="#838b8b" stroke="#838b8b" points="389.187,-284.18 382.124,-276.283 382.721,-286.861 389.187,-284.18"/>
</g>
<!-- prior_engine__SoilMoisturePrior&#45;&gt;prior_engine__Prior -->
<g id="edge35" class="edge"><title>prior_engine__SoilMoisturePrior&#45;&gt;prior_engine__Prior</title>
<path fill="none" stroke="#000000" d="M1549.63,-341.217C1483.6,-338.875 1394.72,-330.881 1319.84,-307.22 1299.76,-300.874 1279.17,-290.312 1261.81,-280.002"/>
<polygon fill="#000000" stroke="#000000" points="1263.4,-276.873 1253.04,-274.657 1259.75,-282.85 1263.4,-276.873"/>
</g>
<!-- prior_engine__SoilMoisturePrior____init__ -->
<g id="node24" class="node"><title>prior_engine__SoilMoisturePrior____init__</title>
<ellipse fill="#ff9999" fill-opacity="0.698039" stroke="black" cx="1645.84" cy="-249.35" rx="96.3333" ry="26.7407"/>
<text text-anchor="middle" x="1645.84" y="-253.15" font-family="Times,serif" font-size="14.00" fill="#000000">__init__</text>
<text text-anchor="middle" x="1645.84" y="-238.15" font-family="Times,serif" font-size="14.00" fill="#000000">(prior_engine.py:191)</text>
</g>
<!-- prior_engine__SoilMoisturePrior&#45;&gt;prior_engine__SoilMoisturePrior____init__ -->
<g id="edge4" class="edge"><title>prior_engine__SoilMoisturePrior&#45;&gt;prior_engine__SoilMoisturePrior____init__</title>
<path fill="none" stroke="#838b8b" stroke-dasharray="5,2" d="M1645.84,-314.845C1645.84,-305.927 1645.84,-295.803 1645.84,-286.262"/>
<polygon fill="#838b8b" stroke="#838b8b" points="1649.34,-286.224 1645.84,-276.224 1642.34,-286.224 1649.34,-286.224"/>
</g>
<!-- prior_engine__SoilMoisturePrior___calc_climatological_prior -->
<g id="node25" class="node"><title>prior_engine__SoilMoisturePrior___calc_climatological_prior</title>
<ellipse fill="#ff9999" fill-opacity="0.698039" stroke="black" cx="1855.84" cy="-148.61" rx="115.017" ry="26.7407"/>
<text text-anchor="middle" x="1855.84" y="-152.41" font-family="Times,serif" font-size="14.00" fill="#000000">_calc_climatological_prior</text>
<text text-anchor="middle" x="1855.84" y="-137.41" font-family="Times,serif" font-size="14.00" fill="#000000">(prior_engine.py:280)</text>
</g>
<!-- prior_engine__SoilMoisturePrior&#45;&gt;prior_engine__SoilMoisturePrior___calc_climatological_prior -->
<g id="edge5" class="edge"><title>prior_engine__SoilMoisturePrior&#45;&gt;prior_engine__SoilMoisturePrior___calc_climatological_prior</title>
<path fill="none" stroke="#838b8b" stroke-dasharray="5,2" d="M1740.54,-337.214C1827.88,-332.641 1946.21,-323.511 1960.84,-307.22 1988.38,-276.557 1980.91,-250.479 1960.84,-214.48 1952.16,-198.914 1938.04,-186.615 1922.92,-177.104"/>
<polygon fill="#838b8b" stroke="#838b8b" points="1924.34,-173.875 1913.94,-171.822 1920.79,-179.909 1924.34,-173.875"/>
</g>
<!-- prior_engine__SoilMoisturePrior___extract_climatology -->
<g id="node26" class="node"><title>prior_engine__SoilMoisturePrior___extract_climatology</title>
<ellipse fill="#ff9999" fill-opacity="0.698039" stroke="black" cx="1695.84" cy="-58.8701" rx="96.3333" ry="26.7407"/>
<text text-anchor="middle" x="1695.84" y="-62.6701" font-family="Times,serif" font-size="14.00" fill="#000000">_extract_climatology</text>
<text text-anchor="middle" x="1695.84" y="-47.6701" font-family="Times,serif" font-size="14.00" fill="#000000">(prior_engine.py:223)</text>
</g>
<!-- prior_engine__SoilMoisturePrior&#45;&gt;prior_engine__SoilMoisturePrior___extract_climatology -->
<g id="edge2" class="edge"><title>prior_engine__SoilMoisturePrior&#45;&gt;prior_engine__SoilMoisturePrior___extract_climatology</title>
<path fill="none" stroke="#838b8b" stroke-dasharray="5,2" d="M1740.82,-337.456C1831.89,-332.997 1957.88,-323.889 1973.84,-307.22 2002.36,-277.434 2005.97,-153.646 1979.84,-121.74 1928.43,-58.9569 1880.03,-103.451 1800.84,-85.7401 1792.61,-83.8995 1784.03,-81.9082 1775.49,-79.8759"/>
<polygon fill="#838b8b" stroke="#838b8b" points="1776.03,-76.4074 1765.49,-77.4778 1774.4,-83.2142 1776.03,-76.4074"/>
</g>
<!-- prior_engine__SoilMoisturePrior___get_climatology_file -->
<g id="node27" class="node"><title>prior_engine__SoilMoisturePrior___get_climatology_file</title>
<ellipse fill="#ff9999" fill-opacity="0.698039" stroke="black" cx="1906.84" cy="-58.8701" rx="96.7474" ry="26.7407"/>
<text text-anchor="middle" x="1906.84" y="-62.6701" font-family="Times,serif" font-size="14.00" fill="#000000">_get_climatology_file</text>
<text text-anchor="middle" x="1906.84" y="-47.6701" font-family="Times,serif" font-size="14.00" fill="#000000">(prior_engine.py:208)</text>
</g>
<!-- prior_engine__SoilMoisturePrior&#45;&gt;prior_engine__SoilMoisturePrior___get_climatology_file -->
<g id="edge1" class="edge"><title>prior_engine__SoilMoisturePrior&#45;&gt;prior_engine__SoilMoisturePrior___get_climatology_file</title>
<path fill="none" stroke="#838b8b" stroke-dasharray="5,2" d="M1741.12,-338.06C1837.01,-334.019 1973.07,-325.175 1989.84,-307.22 2046.11,-246.963 2030.44,-195.113 1992.84,-121.74 1986.02,-108.441 1974.87,-97.3509 1962.82,-88.408"/>
<polygon fill="#838b8b" stroke="#838b8b" points="1964.59,-85.3765 1954.38,-82.5589 1960.61,-91.1306 1964.59,-85.3765"/>
</g>
<!-- prior_engine__SoilMoisturePrior___get_recent_sm_proxy -->
<g id="node28" class="node"><title>prior_engine__SoilMoisturePrior___get_recent_sm_proxy</title>
<ellipse fill="#ff9999" fill-opacity="0.698039" stroke="black" cx="1431.84" cy="-249.35" rx="99.9045" ry="26.7407"/>
<text text-anchor="middle" x="1431.84" y="-253.15" font-family="Times,serif" font-size="14.00" fill="#000000">_get_recent_sm_proxy</text>
<text text-anchor="middle" x="1431.84" y="-238.15" font-family="Times,serif" font-size="14.00" fill="#000000">(prior_engine.py:338)</text>
</g>
<!-- prior_engine__SoilMoisturePrior&#45;&gt;prior_engine__SoilMoisturePrior___get_recent_sm_proxy -->
<g id="edge3" class="edge"><title>prior_engine__SoilMoisturePrior&#45;&gt;prior_engine__SoilMoisturePrior___get_recent_sm_proxy</title>
<path fill="none" stroke="#838b8b" stroke-dasharray="5,2" d="M1581.08,-322.097C1567.63,-317.624 1553.65,-312.583 1540.84,-307.22 1521.22,-299.008 1500.37,-288.574 1482.21,-278.892"/>
<polygon fill="#838b8b" stroke="#838b8b" points="1483.44,-275.58 1472.97,-273.913 1480.11,-281.741 1483.44,-275.58"/>
</g>
<!-- prior_engine__SoilMoisturePrior__initialize -->
<g id="node29" class="node"><title>prior_engine__SoilMoisturePrior__initialize</title>
<ellipse fill="#ff9999" fill-opacity="0.698039" stroke="black" cx="1855.84" cy="-249.35" rx="96.3333" ry="26.7407"/>
<text text-anchor="middle" x="1855.84" y="-253.15" font-family="Times,serif" font-size="14.00" fill="#000000">initialize</text>
<text text-anchor="middle" x="1855.84" y="-238.15" font-family="Times,serif" font-size="14.00" fill="#000000">(prior_engine.py:194)</text>
</g>
<!-- prior_engine__SoilMoisturePrior&#45;&gt;prior_engine__SoilMoisturePrior__initialize -->
<g id="edge6" class="edge"><title>prior_engine__SoilMoisturePrior&#45;&gt;prior_engine__SoilMoisturePrior__initialize</title>
<path fill="none" stroke="#838b8b" stroke-dasharray="5,2" d="M1710.94,-322.157C1724.31,-317.696 1738.16,-312.644 1750.84,-307.22 1769.83,-299.097 1789.94,-288.682 1807.43,-278.991"/>
<polygon fill="#838b8b" stroke="#838b8b" points="1809.31,-281.951 1816.31,-274.005 1805.88,-275.847 1809.31,-281.951"/>
</g>
<!-- prior_engine__get_mean_state_vector&#45;&gt;prior_engine__PriorEngine__get_priors -->
<g id="edge34" class="edge"><title>prior_engine__get_mean_state_vector&#45;&gt;prior_engine__PriorEngine__get_priors</title>
<path fill="none" stroke="#000000" d="M562.825,-681.495C548.059,-670.512 530.499,-657.452 514.896,-645.847"/>
<polygon fill="#000000" stroke="#000000" points="516.572,-642.731 506.459,-639.572 512.394,-648.348 516.572,-642.731"/>
</g>
<!-- prior_engine__MapPrior____init__&#45;&gt;prior_engine__Prior____init__ -->
<g id="edge42" class="edge"><title>prior_engine__MapPrior____init__&#45;&gt;prior_engine__Prior____init__</title>
<path fill="none" stroke="#000000" d="M1042.82,-224.196C1062.3,-210.748 1086.72,-193.887 1107.41,-179.601"/>
<polygon fill="#000000" stroke="#000000" points="1109.48,-182.42 1115.72,-173.858 1105.51,-176.659 1109.48,-182.42"/>
</g>
<!-- prior_engine__Prior____init__&#45;&gt;prior_engine__Prior___check -->
<g id="edge29" class="edge"><title>prior_engine__Prior____init__&#45;&gt;prior_engine__Prior___check</title>
<path fill="none" stroke="#000000" d="M1150.84,-121.285C1150.84,-113.319 1150.84,-104.428 1150.84,-95.9391"/>
<polygon fill="#000000" stroke="#000000" points="1154.34,-95.874 1150.84,-85.874 1147.34,-95.8741 1154.34,-95.874"/>
</g>
<!-- prior_engine__PriorEngine____init__&#45;&gt;prior_engine__PriorEngine___check -->
<g id="edge46" class="edge"><title>prior_engine__PriorEngine____init__&#45;&gt;prior_engine__PriorEngine___check</title>
<path fill="none" stroke="#000000" d="M725.514,-591.735C753.658,-579.51 789.044,-564.14 818.625,-551.291"/>
<polygon fill="#000000" stroke="#000000" points="820.231,-554.41 828.009,-547.215 817.442,-547.989 820.231,-554.41"/>
</g>
<!-- prior_engine__PriorEngine____init__&#45;&gt;prior_engine__PriorEngine___get_config -->
<g id="edge47" class="edge"><title>prior_engine__PriorEngine____init__&#45;&gt;prior_engine__PriorEngine___get_config</title>
<path fill="none" stroke="#000000" d="M676.44,-586.986C676.622,-579.019 676.825,-570.128 677.018,-561.64"/>
<polygon fill="#000000" stroke="#000000" points="680.519,-561.652 677.248,-551.575 673.521,-561.492 680.519,-561.652"/>
</g>
<!-- prior_engine__PriorEngine___get_prior&#45;&gt;prior_engine__RoughnessPrior -->
<g id="edge39" class="edge"><title>prior_engine__PriorEngine___get_prior&#45;&gt;prior_engine__RoughnessPrior</title>
<path fill="none" stroke="#000000" d="M317.031,-501.882C344.45,-489.793 378.784,-474.655 407.664,-461.922"/>
<polygon fill="#000000" stroke="#000000" points="409.095,-465.116 416.833,-457.879 406.271,-458.711 409.095,-465.116"/>
</g>
<!-- prior_engine__PriorEngine___get_prior&#45;&gt;prior_engine__SoilMoisturePrior -->
<g id="edge40" class="edge"><title>prior_engine__PriorEngine___get_prior&#45;&gt;prior_engine__SoilMoisturePrior</title>
<path fill="none" stroke="#000000" d="M322.572,-502.943C337.125,-498.036 352.943,-493.212 367.84,-489.701 456.916,-468.704 481.954,-478.899 571.84,-461.701 669.852,-442.948 690.935,-421.216 789.84,-407.96 861.004,-398.423 1041.19,-404.662 1112.84,-399.96 1266.22,-389.895 1443.56,-369.144 1550.09,-355.686"/>
<polygon fill="#000000" stroke="#000000" points="1550.69,-359.137 1560.17,-354.407 1549.81,-352.193 1550.69,-359.137"/>
</g>
<!-- prior_engine__PriorEngine___get_prior&#45;&gt;prior_engine__Prior__initialize -->
<g id="edge41" class="edge"><title>prior_engine__PriorEngine___get_prior&#45;&gt;prior_engine__Prior__initialize</title>
<path fill="none" stroke="#000000" d="M213.425,-502.998C200.234,-498.337 186.108,-493.613 172.84,-489.701 120.726,-474.331 87.5743,-504.293 53.8404,-461.701 -14.3782,-375.568 -20.9664,-294.958 53.8404,-214.48 105.995,-158.372 610.312,-150.271 834.422,-149.465"/>
<polygon fill="#000000" stroke="#000000" points="834.566,-152.964 844.555,-149.432 834.543,-145.964 834.566,-152.964"/>
</g>
<!-- prior_engine__PriorEngine__get_priors&#45;&gt;prior_engine__PriorEngine___concat_priors -->
<g id="edge48" class="edge"><title>prior_engine__PriorEngine__get_priors&#45;&gt;prior_engine__PriorEngine___concat_priors</title>
<path fill="none" stroke="#000000" d="M473.54,-586.986C473.45,-579.019 473.348,-570.128 473.251,-561.64"/>
<polygon fill="#000000" stroke="#000000" points="476.751,-561.534 473.137,-551.575 469.751,-561.614 476.751,-561.534"/>
</g>
<!-- prior_engine__PriorEngine__get_priors&#45;&gt;prior_engine__PriorEngine___get_prior -->
<g id="edge49" class="edge"><title>prior_engine__PriorEngine__get_priors&#45;&gt;prior_engine__PriorEngine___get_prior</title>
<path fill="none" stroke="#000000" d="M423.447,-591.847C394.517,-579.525 358.019,-563.98 327.643,-551.042"/>
<polygon fill="#000000" stroke="#000000" points="328.999,-547.815 318.427,-547.117 326.256,-554.256 328.999,-547.815"/>
</g>
<!-- prior_engine__RoughnessPrior____init__&#45;&gt;prior_engine__MapPrior____init__ -->
<g id="edge44" class="edge"><title>prior_engine__RoughnessPrior____init__&#45;&gt;prior_engine__MapPrior____init__</title>
<path fill="none" stroke="#000000" d="M857.914,-322.452C871.925,-317.923 886.506,-312.769 899.84,-307.22 919.417,-299.075 940.189,-288.609 958.231,-278.881"/>
<polygon fill="#000000" stroke="#000000" points="960.297,-281.741 967.397,-273.877 956.942,-275.597 960.297,-281.741"/>
</g>
<!-- prior_engine__RoughnessPrior__calc&#45;&gt;prior_engine__RoughnessPrior___map_lut -->
<g id="edge32" class="edge"><title>prior_engine__RoughnessPrior__calc&#45;&gt;prior_engine__RoughnessPrior___map_lut</title>
<path fill="none" stroke="#000000" d="M581.84,-314.845C581.84,-305.927 581.84,-295.803 581.84,-286.262"/>
<polygon fill="#000000" stroke="#000000" points="585.34,-286.224 581.84,-276.224 578.34,-286.224 585.34,-286.224"/>
</g>
<!-- prior_engine__RoughnessPrior__calc&#45;&gt;prior_engine__RoughnessPrior___read_lc -->
<g id="edge31" class="edge"><title>prior_engine__RoughnessPrior__calc&#45;&gt;prior_engine__RoughnessPrior___read_lc</title>
<path fill="none" stroke="#000000" d="M646.944,-322.157C660.308,-317.696 674.161,-312.644 686.84,-307.22 705.831,-299.097 725.944,-288.682 743.429,-278.991"/>
<polygon fill="#000000" stroke="#000000" points="745.306,-281.951 752.313,-274.005 741.88,-275.847 745.306,-281.951"/>
</g>
<!-- prior_engine__RoughnessPrior__calc&#45;&gt;prior_engine__RoughnessPrior___read_lut -->
<g id="edge30" class="edge"><title>prior_engine__RoughnessPrior__calc&#45;&gt;prior_engine__RoughnessPrior___read_lut</title>
<path fill="none" stroke="#000000" d="M517.168,-322.193C505.498,-319.404 493.374,-316.907 481.84,-315.22 434.532,-308.304 312.96,-319.825 266.84,-307.22 245.358,-301.349 223.417,-290.392 205.183,-279.65"/>
<polygon fill="#000000" stroke="#000000" points="206.915,-276.607 196.549,-274.418 203.287,-282.594 206.915,-276.607"/>
</g>
<!-- prior_engine__RoughnessPrior__calc&#45;&gt;prior_engine__RoughnessPrior__save -->
<g id="edge33" class="edge"><title>prior_engine__RoughnessPrior__calc&#45;&gt;prior_engine__RoughnessPrior__save</title>
<path fill="none" stroke="#000000" d="M516.736,-322.157C503.373,-317.696 489.52,-312.644 476.84,-307.22 457.85,-299.097 437.737,-288.682 420.252,-278.991"/>
<polygon fill="#000000" stroke="#000000" points="421.801,-275.847 411.367,-274.005 418.375,-281.951 421.801,-275.847"/>
</g>
<!-- prior_engine__SoilMoisturePrior____init__&#45;&gt;prior_engine__Prior____init__ -->
<g id="edge45" class="edge"><title>prior_engine__SoilMoisturePrior____init__&#45;&gt;prior_engine__Prior____init__</title>
<path fill="none" stroke="#000000" d="M1590.44,-227.331C1574.64,-222.203 1557.25,-217.367 1540.84,-214.48 1444.04,-197.454 1416.53,-224.115 1319.84,-206.48 1283.27,-199.811 1243.83,-186.886 1212.25,-175.041"/>
<polygon fill="#000000" stroke="#000000" points="1213.3,-171.698 1202.71,-171.408 1210.81,-178.239 1213.3,-171.698"/>
</g>
<!-- prior_engine__SoilMoisturePrior___calc_climatological_prior&#45;&gt;prior_engine__SoilMoisturePrior___extract_climatology -->
<g id="edge38" class="edge"><title>prior_engine__SoilMoisturePrior___calc_climatological_prior&#45;&gt;prior_engine__SoilMoisturePrior___extract_climatology</title>
<path fill="none" stroke="#000000" d="M1812.12,-123.635C1791.96,-112.58 1767.9,-99.3871 1746.91,-87.8775"/>
<polygon fill="#000000" stroke="#000000" points="1748.58,-84.7985 1738.13,-83.059 1745.21,-90.9362 1748.58,-84.7985"/>
</g>
<!-- prior_engine__SoilMoisturePrior___calc_climatological_prior&#45;&gt;prior_engine__SoilMoisturePrior___get_climatology_file -->
<g id="edge37" class="edge"><title>prior_engine__SoilMoisturePrior___calc_climatological_prior&#45;&gt;prior_engine__SoilMoisturePrior___get_climatology_file</title>
<path fill="none" stroke="#000000" d="M1870.87,-121.76C1875.85,-113.192 1881.47,-103.514 1886.77,-94.3997"/>
<polygon fill="#000000" stroke="#000000" points="1889.92,-95.9401 1891.92,-85.5357 1883.87,-92.4224 1889.92,-95.9401"/>
</g>
<!-- prior_engine__SoilMoisturePrior__initialize&#45;&gt;prior_engine__SoilMoisturePrior___calc_climatological_prior -->
<g id="edge51" class="edge"><title>prior_engine__SoilMoisturePrior__initialize&#45;&gt;prior_engine__SoilMoisturePrior___calc_climatological_prior</title>
<path fill="none" stroke="#000000" d="M1855.84,-222.407C1855.84,-211.271 1855.84,-198.064 1855.84,-185.976"/>
<polygon fill="#000000" stroke="#000000" points="1859.34,-185.723 1855.84,-175.723 1852.34,-185.723 1859.34,-185.723"/>
</g>
</g>
</svg>
