<?xml version="1.0" encoding="UTF-8" standalone="no"?>
<!DOCTYPE svg PUBLIC "-//W3C//DTD SVG 1.1//EN"
 "http://www.w3.org/Graphics/SVG/1.1/DTD/svg11.dtd">
<!-- Generated by graphviz version 2.38.0 (20140413.2041)
 -->
<!-- Title: G Pages: 1 -->
<svg width="2592pt" height="642pt"
 viewBox="0.00 0.00 2592.00 642.44" xmlns="http://www.w3.org/2000/svg" xmlns:xlink="http://www.w3.org/1999/xlink">
<g id="graph0" class="graph" transform="scale(1 1) rotate(0) translate(4 638.441)">
<title>G</title>
<polygon fill="white" stroke="none" points="-4,4 -4,-638.441 2588,-638.441 2588,4 -4,4"/>
<g id="clust1" class="cluster"><title>cluster_G</title>
<path fill="#808080" fill-opacity="0.094118" stroke="black" d="M20,-8C20,-8 2564,-8 2564,-8 2570,-8 2576,-14 2576,-20 2576,-20 2576,-614.441 2576,-614.441 2576,-620.441 2570,-626.441 2564,-626.441 2564,-626.441 20,-626.441 20,-626.441 14,-626.441 8,-620.441 8,-614.441 8,-614.441 8,-20 8,-20 8,-14 14,-8 20,-8"/>
</g>
<g id="clust2" class="cluster"><title>cluster_prior_engine</title>
<path fill="#808080" fill-opacity="0.094118" stroke="black" d="M28,-16C28,-16 2556,-16 2556,-16 2562,-16 2568,-22 2568,-28 2568,-28 2568,-562.441 2568,-562.441 2568,-568.441 2562,-574.441 2556,-574.441 2556,-574.441 28,-574.441 28,-574.441 22,-574.441 16,-568.441 16,-562.441 16,-562.441 16,-28 16,-28 16,-22 22,-16 28,-16"/>
<text text-anchor="middle" x="1292" y="-559.241" font-family="Times,serif" font-size="14.00">prior_engine</text>
</g>
<g id="clust3" class="cluster"><title>cluster_prior_engine__MapPrior</title>
<path fill="#808080" fill-opacity="0.094118" stroke="black" d="M2364,-296.22C2364,-296.22 2548,-296.22 2548,-296.22 2554,-296.22 2560,-302.22 2560,-308.22 2560,-308.22 2560,-376.96 2560,-376.96 2560,-382.96 2554,-388.96 2548,-388.96 2548,-388.96 2364,-388.96 2364,-388.96 2358,-388.96 2352,-382.96 2352,-376.96 2352,-376.96 2352,-308.22 2352,-308.22 2352,-302.22 2358,-296.22 2364,-296.22"/>
<text text-anchor="middle" x="2456" y="-373.76" font-family="Times,serif" font-size="14.00">prior_engine.MapPrior</text>
</g>
<g id="clust4" class="cluster"><title>cluster_prior_engine__Prior</title>
<path fill="#808080" fill-opacity="0.094118" stroke="black" d="M448,-105.74C448,-105.74 842,-105.74 842,-105.74 848,-105.74 854,-111.74 854,-117.74 854,-117.74 854,-276.22 854,-276.22 854,-282.22 848,-288.22 842,-288.22 842,-288.22 448,-288.22 448,-288.22 442,-288.22 436,-282.22 436,-276.22 436,-276.22 436,-117.74 436,-117.74 436,-111.74 442,-105.74 448,-105.74"/>
<text text-anchor="middle" x="645" y="-273.02" font-family="Times,serif" font-size="14.00">prior_engine.Prior</text>
</g>
<g id="clust5" class="cluster"><title>cluster_prior_engine__PriorEngine</title>
<path fill="#808080" fill-opacity="0.094118" stroke="black" d="M36,-296.22C36,-296.22 820,-296.22 820,-296.22 826,-296.22 832,-302.22 832,-308.22 832,-308.22 832,-469.701 832,-469.701 832,-475.701 826,-481.701 820,-481.701 820,-481.701 36,-481.701 36,-481.701 30,-481.701 24,-475.701 24,-469.701 24,-469.701 24,-308.22 24,-308.22 24,-302.22 30,-296.22 36,-296.22"/>
<text text-anchor="middle" x="428" y="-466.501" font-family="Times,serif" font-size="14.00">prior_engine.PriorEngine</text>
</g>
<g id="clust6" class="cluster"><title>cluster_prior_engine__RoughnessPrior</title>
<path fill="#808080" fill-opacity="0.094118" stroke="black" d="M1518,-296.22C1518,-296.22 2332,-296.22 2332,-296.22 2338,-296.22 2344,-302.22 2344,-308.22 2344,-308.22 2344,-469.701 2344,-469.701 2344,-475.701 2338,-481.701 2332,-481.701 2332,-481.701 1518,-481.701 1518,-481.701 1512,-481.701 1506,-475.701 1506,-469.701 1506,-469.701 1506,-308.22 1506,-308.22 1506,-302.22 1512,-296.22 1518,-296.22"/>
<text text-anchor="middle" x="1925" y="-466.501" font-family="Times,serif" font-size="14.00">prior_engine.RoughnessPrior</text>
</g>
<g id="clust7" class="cluster"><title>cluster_prior_engine__SoilMoisturePrior</title>
<path fill="#808080" fill-opacity="0.094118" stroke="black" d="M874,-105.74C874,-105.74 1486,-105.74 1486,-105.74 1492,-105.74 1498,-111.74 1498,-117.74 1498,-117.74 1498,-376.96 1498,-376.96 1498,-382.96 1492,-388.96 1486,-388.96 1486,-388.96 874,-388.96 874,-388.96 868,-388.96 862,-382.96 862,-376.96 862,-376.96 862,-117.74 862,-117.74 862,-111.74 868,-105.74 874,-105.74"/>
<text text-anchor="middle" x="1180" y="-373.76" font-family="Times,serif" font-size="14.00">prior_engine.SoilMoisturePrior</text>
</g>
<!-- prior_engine -->
<g id="node1" class="node"><title>prior_engine</title>
<ellipse fill="#ffffff" fill-opacity="0.698039" stroke="black" cx="230" cy="-600.441" rx="55.7903" ry="18"/>
<text text-anchor="middle" x="230" y="-596.741" font-family="Times,serif" font-size="14.00" fill="#000000">prior_engine</text>
</g>
<!-- prior_engine__get_mean_state_vector -->
<g id="node7" class="node"><title>prior_engine__get_mean_state_vector</title>
<ellipse fill="#fecccc" fill-opacity="0.698039" stroke="black" cx="230" cy="-516.571" rx="100.318" ry="26.7407"/>
<text text-anchor="middle" x="230" y="-520.371" font-family="Times,serif" font-size="14.00" fill="#000000">get_mean_state_vector</text>
<text text-anchor="middle" x="230" y="-505.371" font-family="Times,serif" font-size="14.00" fill="#000000">(prior_engine.py:375)</text>
</g>
<!-- prior_engine&#45;&gt;prior_engine__get_mean_state_vector -->
<g id="edge22" class="edge"><title>prior_engine&#45;&gt;prior_engine__get_mean_state_vector</title>
<path fill="none" stroke="#000000" d="M230,-582.078C230,-573.787 230,-563.539 230,-553.671"/>
<polygon fill="#000000" stroke="#000000" points="233.5,-553.622 230,-543.622 226.5,-553.623 233.5,-553.622"/>
</g>
<!-- prior_engine__MapPrior -->
<g id="node2" class="node"><title>prior_engine__MapPrior</title>
<ellipse fill="#fecccc" fill-opacity="0.698039" stroke="black" cx="144" cy="-140.61" rx="96.3333" ry="26.7407"/>
<text text-anchor="middle" x="144" y="-144.41" font-family="Times,serif" font-size="14.00" fill="#000000">MapPrior</text>
<text text-anchor="middle" x="144" y="-129.41" font-family="Times,serif" font-size="14.00" fill="#000000">(prior_engine.py:161)</text>
</g>
<!-- prior_engine__Prior -->
<g id="node3" class="node"><title>prior_engine__Prior</title>
<ellipse fill="#fecccc" fill-opacity="0.698039" stroke="black" cx="144" cy="-50.8701" rx="96.3333" ry="26.7407"/>
<text text-anchor="middle" x="144" y="-54.6701" font-family="Times,serif" font-size="14.00" fill="#000000">Prior</text>
<text text-anchor="middle" x="144" y="-39.6701" font-family="Times,serif" font-size="14.00" fill="#000000">(prior_engine.py:140)</text>
</g>
<!-- prior_engine__MapPrior&#45;&gt;prior_engine__Prior -->
<g id="edge21" class="edge"><title>prior_engine__MapPrior&#45;&gt;prior_engine__Prior</title>
<path fill="none" stroke="#000000" d="M144,-113.285C144,-105.319 144,-96.4275 144,-87.9391"/>
<polygon fill="#000000" stroke="#000000" points="147.5,-87.874 144,-77.874 140.5,-87.8741 147.5,-87.874"/>
</g>
<!-- prior_engine__PriorEngine -->
<g id="node4" class="node"><title>prior_engine__PriorEngine</title>
<ellipse fill="#fecccc" fill-opacity="0.698039" stroke="black" cx="1505" cy="-516.571" rx="91.4341" ry="26.7407"/>
<text text-anchor="middle" x="1505" y="-520.371" font-family="Times,serif" font-size="14.00" fill="#000000">PriorEngine</text>
<text text-anchor="middle" x="1505" y="-505.371" font-family="Times,serif" font-size="14.00" fill="#000000">(prior_engine.py:33)</text>
</g>
<!-- prior_engine__RoughnessPrior -->
<g id="node5" class="node"><title>prior_engine__RoughnessPrior</title>
<ellipse fill="#fecccc" fill-opacity="0.698039" stroke="black" cx="120" cy="-230.35" rx="96.3333" ry="26.7407"/>
<text text-anchor="middle" x="120" y="-234.15" font-family="Times,serif" font-size="14.00" fill="#000000">RoughnessPrior</text>
<text text-anchor="middle" x="120" y="-219.15" font-family="Times,serif" font-size="14.00" fill="#000000">(prior_engine.py:342)</text>
</g>
<!-- prior_engine__RoughnessPrior&#45;&gt;prior_engine__MapPrior -->
<g id="edge14" class="edge"><title>prior_engine__RoughnessPrior&#45;&gt;prior_engine__MapPrior</title>
<path fill="none" stroke="#000000" d="M127.071,-203.5C129.321,-195.273 131.852,-186.023 134.256,-177.231"/>
<polygon fill="#000000" stroke="#000000" points="137.634,-178.148 136.897,-167.579 130.882,-176.301 137.634,-178.148"/>
</g>
<!-- prior_engine__SoilMoisturePrior -->
<g id="node6" class="node"><title>prior_engine__SoilMoisturePrior</title>
<ellipse fill="#fecccc" fill-opacity="0.698039" stroke="black" cx="330" cy="-230.35" rx="96.3333" ry="26.7407"/>
<text text-anchor="middle" x="330" y="-234.15" font-family="Times,serif" font-size="14.00" fill="#000000">SoilMoisturePrior</text>
<text text-anchor="middle" x="330" y="-219.15" font-family="Times,serif" font-size="14.00" fill="#000000">(prior_engine.py:186)</text>
</g>
<!-- prior_engine__SoilMoisturePrior&#45;&gt;prior_engine__Prior -->
<g id="edge3" class="edge"><title>prior_engine__SoilMoisturePrior&#45;&gt;prior_engine__Prior</title>
<path fill="none" stroke="#000000" d="M318.134,-203.584C304.582,-176.431 280.193,-133.789 249,-105.74 236.825,-94.7925 222.02,-85.4304 207.412,-77.7306"/>
<polygon fill="#000000" stroke="#000000" points="208.87,-74.546 198.368,-73.152 205.709,-80.7913 208.87,-74.546"/>
</g>
<!-- prior_engine__PriorEngine__get_priors -->
<g id="node17" class="node"><title>prior_engine__PriorEngine__get_priors</title>
<ellipse fill="#ff9999" fill-opacity="0.698039" stroke="black" cx="230" cy="-423.831" rx="91.4341" ry="26.7407"/>
<text text-anchor="middle" x="230" y="-427.631" font-family="Times,serif" font-size="14.00" fill="#000000">get_priors</text>
<text text-anchor="middle" x="230" y="-412.631" font-family="Times,serif" font-size="14.00" fill="#000000">(prior_engine.py:49)</text>
</g>
<!-- prior_engine__get_mean_state_vector&#45;&gt;prior_engine__PriorEngine__get_priors -->
<g id="edge2" class="edge"><title>prior_engine__get_mean_state_vector&#45;&gt;prior_engine__PriorEngine__get_priors</title>
<path fill="none" stroke="#000000" d="M230,-489.325C230,-480.407 230,-470.283 230,-460.742"/>
<polygon fill="#000000" stroke="#000000" points="233.5,-460.704 230,-450.704 226.5,-460.704 233.5,-460.704"/>
</g>
<!-- prior_engine__MapPrior____init__ -->
<g id="node8" class="node"><title>prior_engine__MapPrior____init__</title>
<ellipse fill="#ff9999" fill-opacity="0.698039" stroke="black" cx="2456" cy="-331.09" rx="96.3333" ry="26.7407"/>
<text text-anchor="middle" x="2456" y="-334.89" font-family="Times,serif" font-size="14.00" fill="#000000">__init__</text>
<text text-anchor="middle" x="2456" y="-319.89" font-family="Times,serif" font-size="14.00" fill="#000000">(prior_engine.py:165)</text>
</g>
<!-- prior_engine__Prior____init__ -->
<g id="node9" class="node"><title>prior_engine__Prior____init__</title>
<ellipse fill="#ff9999" fill-opacity="0.698039" stroke="black" cx="750" cy="-230.35" rx="96.3333" ry="26.7407"/>
<text text-anchor="middle" x="750" y="-234.15" font-family="Times,serif" font-size="14.00" fill="#000000">__init__</text>
<text text-anchor="middle" x="750" y="-219.15" font-family="Times,serif" font-size="14.00" fill="#000000">(prior_engine.py:141)</text>
</g>
<!-- prior_engine__MapPrior____init__&#45;&gt;prior_engine__Prior____init__ -->
<g id="edge13" class="edge"><title>prior_engine__MapPrior____init__&#45;&gt;prior_engine__Prior____init__</title>
<path fill="none" stroke="#000000" d="M2400.14,-309.094C2383.6,-303.828 2365.28,-298.914 2348,-296.22 2307.1,-289.846 898.153,-298.261 858,-288.22 835.639,-282.629 812.782,-271.522 793.888,-260.596"/>
<polygon fill="#000000" stroke="#000000" points="795.61,-257.548 785.227,-255.441 792.03,-263.563 795.61,-257.548"/>
</g>
<!-- prior_engine__Prior___check -->
<g id="node10" class="node"><title>prior_engine__Prior___check</title>
<ellipse fill="#ff9999" fill-opacity="0.698039" stroke="black" cx="750" cy="-140.61" rx="96.3333" ry="26.7407"/>
<text text-anchor="middle" x="750" y="-144.41" font-family="Times,serif" font-size="14.00" fill="#000000">_check</text>
<text text-anchor="middle" x="750" y="-129.41" font-family="Times,serif" font-size="14.00" fill="#000000">(prior_engine.py:146)</text>
</g>
<!-- prior_engine__Prior____init__&#45;&gt;prior_engine__Prior___check -->
<g id="edge1" class="edge"><title>prior_engine__Prior____init__&#45;&gt;prior_engine__Prior___check</title>
<path fill="none" stroke="#000000" d="M750,-203.025C750,-195.059 750,-186.168 750,-177.679"/>
<polygon fill="#000000" stroke="#000000" points="753.5,-177.614 750,-167.614 746.5,-177.614 753.5,-177.614"/>
</g>
<!-- prior_engine__Prior__initialize -->
<g id="node11" class="node"><title>prior_engine__Prior__initialize</title>
<ellipse fill="#ff9999" fill-opacity="0.698039" stroke="black" cx="540" cy="-230.35" rx="96.3333" ry="26.7407"/>
<text text-anchor="middle" x="540" y="-234.15" font-family="Times,serif" font-size="14.00" fill="#000000">initialize</text>
<text text-anchor="middle" x="540" y="-219.15" font-family="Times,serif" font-size="14.00" fill="#000000">(prior_engine.py:150)</text>
</g>
<!-- prior_engine__PriorEngine____init__ -->
<g id="node12" class="node"><title>prior_engine__PriorEngine____init__</title>
<ellipse fill="#ff9999" fill-opacity="0.698039" stroke="black" cx="633" cy="-423.831" rx="91.4341" ry="26.7407"/>
<text text-anchor="middle" x="633" y="-427.631" font-family="Times,serif" font-size="14.00" fill="#000000">__init__</text>
<text text-anchor="middle" x="633" y="-412.631" font-family="Times,serif" font-size="14.00" fill="#000000">(prior_engine.py:35)</text>
</g>
<!-- prior_engine__PriorEngine___check -->
<g id="node13" class="node"><title>prior_engine__PriorEngine___check</title>
<ellipse fill="#ff9999" fill-opacity="0.698039" stroke="black" cx="533" cy="-331.09" rx="91.4341" ry="26.7407"/>
<text text-anchor="middle" x="533" y="-334.89" font-family="Times,serif" font-size="14.00" fill="#000000">_check</text>
<text text-anchor="middle" x="533" y="-319.89" font-family="Times,serif" font-size="14.00" fill="#000000">(prior_engine.py:43)</text>
</g>
<!-- prior_engine__PriorEngine____init__&#45;&gt;prior_engine__PriorEngine___check -->
<g id="edge17" class="edge"><title>prior_engine__PriorEngine____init__&#45;&gt;prior_engine__PriorEngine___check</title>
<path fill="none" stroke="#000000" d="M605.675,-398.035C593.99,-387.432 580.209,-374.927 567.806,-363.673"/>
<polygon fill="#000000" stroke="#000000" points="570.05,-360.983 560.292,-356.856 565.346,-366.167 570.05,-360.983"/>
</g>
<!-- prior_engine__PriorEngine___get_config -->
<g id="node15" class="node"><title>prior_engine__PriorEngine___get_config</title>
<ellipse fill="#ff9999" fill-opacity="0.698039" stroke="black" cx="733" cy="-331.09" rx="91.4341" ry="26.7407"/>
<text text-anchor="middle" x="733" y="-334.89" font-family="Times,serif" font-size="14.00" fill="#000000">_get_config</text>
<text text-anchor="middle" x="733" y="-319.89" font-family="Times,serif" font-size="14.00" fill="#000000">(prior_engine.py:66)</text>
</g>
<!-- prior_engine__PriorEngine____init__&#45;&gt;prior_engine__PriorEngine___get_config -->
<g id="edge16" class="edge"><title>prior_engine__PriorEngine____init__&#45;&gt;prior_engine__PriorEngine___get_config</title>
<path fill="none" stroke="#000000" d="M660.325,-398.035C672.01,-387.432 685.791,-374.927 698.194,-363.673"/>
<polygon fill="#000000" stroke="#000000" points="700.654,-366.167 705.708,-356.856 695.95,-360.983 700.654,-366.167"/>
</g>
<!-- prior_engine__PriorEngine___concat_priors -->
<g id="node14" class="node"><title>prior_engine__PriorEngine___concat_priors</title>
<ellipse fill="#ff9999" fill-opacity="0.698039" stroke="black" cx="128" cy="-331.09" rx="96.3333" ry="26.7407"/>
<text text-anchor="middle" x="128" y="-334.89" font-family="Times,serif" font-size="14.00" fill="#000000">_concat_priors</text>
<text text-anchor="middle" x="128" y="-319.89" font-family="Times,serif" font-size="14.00" fill="#000000">(prior_engine.py:119)</text>
</g>
<!-- prior_engine__PriorEngine___get_prior -->
<g id="node16" class="node"><title>prior_engine__PriorEngine___get_prior</title>
<ellipse fill="#ff9999" fill-opacity="0.698039" stroke="black" cx="333" cy="-331.09" rx="91.4341" ry="26.7407"/>
<text text-anchor="middle" x="333" y="-334.89" font-family="Times,serif" font-size="14.00" fill="#000000">_get_prior</text>
<text text-anchor="middle" x="333" y="-319.89" font-family="Times,serif" font-size="14.00" fill="#000000">(prior_engine.py:79)</text>
</g>
<!-- prior_engine__PriorEngine___get_prior&#45;&gt;prior_engine__RoughnessPrior -->
<g id="edge10" class="edge"><title>prior_engine__PriorEngine___get_prior&#45;&gt;prior_engine__RoughnessPrior</title>
<path fill="none" stroke="#000000" d="M276.66,-309.796C259.855,-303.329 241.519,-295.859 225,-288.22 206.492,-279.663 186.707,-269.286 169.358,-259.751"/>
<polygon fill="#000000" stroke="#000000" points="170.97,-256.643 160.527,-254.856 167.576,-262.766 170.97,-256.643"/>
</g>
<!-- prior_engine__PriorEngine___get_prior&#45;&gt;prior_engine__SoilMoisturePrior -->
<g id="edge11" class="edge"><title>prior_engine__PriorEngine___get_prior&#45;&gt;prior_engine__SoilMoisturePrior</title>
<path fill="none" stroke="#000000" d="M332.212,-304.148C331.873,-293.011 331.472,-279.804 331.105,-267.716"/>
<polygon fill="#000000" stroke="#000000" points="334.596,-267.352 330.793,-257.463 327.599,-267.564 334.596,-267.352"/>
</g>
<!-- prior_engine__PriorEngine___get_prior&#45;&gt;prior_engine__Prior__initialize -->
<g id="edge12" class="edge"><title>prior_engine__PriorEngine___get_prior&#45;&gt;prior_engine__Prior__initialize</title>
<path fill="none" stroke="#000000" d="M389.184,-309.856C405.76,-303.419 423.796,-295.949 440,-288.22 457.492,-279.878 476.09,-269.689 492.443,-260.253"/>
<polygon fill="#000000" stroke="#000000" points="494.399,-263.164 501.276,-255.104 490.874,-257.116 494.399,-263.164"/>
</g>
<!-- prior_engine__PriorEngine__get_priors&#45;&gt;prior_engine__PriorEngine___concat_priors -->
<g id="edge19" class="edge"><title>prior_engine__PriorEngine__get_priors&#45;&gt;prior_engine__PriorEngine___concat_priors</title>
<path fill="none" stroke="#000000" d="M202.128,-398.035C190.209,-387.432 176.153,-374.927 163.502,-363.673"/>
<polygon fill="#000000" stroke="#000000" points="165.636,-360.887 155.838,-356.856 160.983,-366.117 165.636,-360.887"/>
</g>
<!-- prior_engine__PriorEngine__get_priors&#45;&gt;prior_engine__PriorEngine___get_prior -->
<g id="edge20" class="edge"><title>prior_engine__PriorEngine__get_priors&#45;&gt;prior_engine__PriorEngine___get_prior</title>
<path fill="none" stroke="#000000" d="M258.145,-398.035C270.181,-387.432 284.375,-374.927 297.15,-363.673"/>
<polygon fill="#000000" stroke="#000000" points="299.699,-366.092 304.889,-356.856 295.072,-360.84 299.699,-366.092"/>
</g>
<!-- prior_engine__RoughnessPrior____init__ -->
<g id="node18" class="node"><title>prior_engine__RoughnessPrior____init__</title>
<ellipse fill="#ff9999" fill-opacity="0.698039" stroke="black" cx="2240" cy="-423.831" rx="96.3333" ry="26.7407"/>
<text text-anchor="middle" x="2240" y="-427.631" font-family="Times,serif" font-size="14.00" fill="#000000">__init__</text>
<text text-anchor="middle" x="2240" y="-412.631" font-family="Times,serif" font-size="14.00" fill="#000000">(prior_engine.py:344)</text>
</g>
<!-- prior_engine__RoughnessPrior____init__&#45;&gt;prior_engine__MapPrior____init__ -->
<g id="edge18" class="edge"><title>prior_engine__RoughnessPrior____init__&#45;&gt;prior_engine__MapPrior____init__</title>
<path fill="none" stroke="#000000" d="M2306.07,-404.192C2320.08,-399.663 2334.67,-394.509 2348,-388.96 2367.58,-380.815 2388.35,-370.349 2406.39,-360.621"/>
<polygon fill="#000000" stroke="#000000" points="2408.46,-363.481 2415.56,-355.617 2405.1,-357.337 2408.46,-363.481"/>
</g>
<!-- prior_engine__RoughnessPrior___map_lut -->
<g id="node19" class="node"><title>prior_engine__RoughnessPrior___map_lut</title>
<ellipse fill="#ff9999" fill-opacity="0.698039" stroke="black" cx="1610" cy="-331.09" rx="96.3333" ry="26.7407"/>
<text text-anchor="middle" x="1610" y="-334.89" font-family="Times,serif" font-size="14.00" fill="#000000">_map_lut</text>
<text text-anchor="middle" x="1610" y="-319.89" font-family="Times,serif" font-size="14.00" fill="#000000">(prior_engine.py:362)</text>
</g>
<!-- prior_engine__RoughnessPrior___read_lc -->
<g id="node20" class="node"><title>prior_engine__RoughnessPrior___read_lc</title>
<ellipse fill="#ff9999" fill-opacity="0.698039" stroke="black" cx="1820" cy="-331.09" rx="96.3333" ry="26.7407"/>
<text text-anchor="middle" x="1820" y="-334.89" font-family="Times,serif" font-size="14.00" fill="#000000">_read_lc</text>
<text text-anchor="middle" x="1820" y="-319.89" font-family="Times,serif" font-size="14.00" fill="#000000">(prior_engine.py:359)</text>
</g>
<!-- prior_engine__RoughnessPrior___read_lut -->
<g id="node21" class="node"><title>prior_engine__RoughnessPrior___read_lut</title>
<ellipse fill="#ff9999" fill-opacity="0.698039" stroke="black" cx="2030" cy="-331.09" rx="96.3333" ry="26.7407"/>
<text text-anchor="middle" x="2030" y="-334.89" font-family="Times,serif" font-size="14.00" fill="#000000">_read_lut</text>
<text text-anchor="middle" x="2030" y="-319.89" font-family="Times,serif" font-size="14.00" fill="#000000">(prior_engine.py:356)</text>
</g>
<!-- prior_engine__RoughnessPrior__calc -->
<g id="node22" class="node"><title>prior_engine__RoughnessPrior__calc</title>
<ellipse fill="#ff9999" fill-opacity="0.698039" stroke="black" cx="1925" cy="-423.831" rx="96.3333" ry="26.7407"/>
<text text-anchor="middle" x="1925" y="-427.631" font-family="Times,serif" font-size="14.00" fill="#000000">calc</text>
<text text-anchor="middle" x="1925" y="-412.631" font-family="Times,serif" font-size="14.00" fill="#000000">(prior_engine.py:347)</text>
</g>
<!-- prior_engine__RoughnessPrior__calc&#45;&gt;prior_engine__RoughnessPrior___map_lut -->
<g id="edge9" class="edge"><title>prior_engine__RoughnessPrior__calc&#45;&gt;prior_engine__RoughnessPrior___map_lut</title>
<path fill="none" stroke="#000000" d="M1834.23,-414.951C1796.63,-409.963 1753.02,-401.904 1715,-388.96 1694.78,-382.076 1673.82,-371.52 1656,-361.364"/>
<polygon fill="#000000" stroke="#000000" points="1657.39,-358.123 1646.99,-356.111 1653.87,-364.17 1657.39,-358.123"/>
</g>
<!-- prior_engine__RoughnessPrior__calc&#45;&gt;prior_engine__RoughnessPrior___read_lc -->
<g id="edge8" class="edge"><title>prior_engine__RoughnessPrior__calc&#45;&gt;prior_engine__RoughnessPrior___read_lc</title>
<path fill="none" stroke="#000000" d="M1896.31,-398.035C1884.04,-387.432 1869.57,-374.927 1856.55,-363.673"/>
<polygon fill="#000000" stroke="#000000" points="1858.51,-360.746 1848.66,-356.856 1853.93,-366.042 1858.51,-360.746"/>
</g>
<!-- prior_engine__RoughnessPrior__calc&#45;&gt;prior_engine__RoughnessPrior___read_lut -->
<g id="edge7" class="edge"><title>prior_engine__RoughnessPrior__calc&#45;&gt;prior_engine__RoughnessPrior___read_lut</title>
<path fill="none" stroke="#000000" d="M1953.69,-398.035C1965.96,-387.432 1980.43,-374.927 1993.45,-363.673"/>
<polygon fill="#000000" stroke="#000000" points="1996.07,-366.042 2001.34,-356.856 1991.49,-360.746 1996.07,-366.042"/>
</g>
<!-- prior_engine__RoughnessPrior__save -->
<g id="node23" class="node"><title>prior_engine__RoughnessPrior__save</title>
<ellipse fill="#ff9999" fill-opacity="0.698039" stroke="black" cx="2240" cy="-331.09" rx="96.3333" ry="26.7407"/>
<text text-anchor="middle" x="2240" y="-334.89" font-family="Times,serif" font-size="14.00" fill="#000000">save</text>
<text text-anchor="middle" x="2240" y="-319.89" font-family="Times,serif" font-size="14.00" fill="#000000">(prior_engine.py:368)</text>
</g>
<!-- prior_engine__RoughnessPrior__calc&#45;&gt;prior_engine__RoughnessPrior__save -->
<g id="edge6" class="edge"><title>prior_engine__RoughnessPrior__calc&#45;&gt;prior_engine__RoughnessPrior__save</title>
<path fill="none" stroke="#000000" d="M2015.77,-414.951C2053.37,-409.963 2096.98,-401.904 2135,-388.96 2155.22,-382.076 2176.18,-371.52 2194,-361.364"/>
<polygon fill="#000000" stroke="#000000" points="2196.13,-364.17 2203.01,-356.111 2192.61,-358.123 2196.13,-364.17"/>
</g>
<!-- prior_engine__SoilMoisturePrior____init__ -->
<g id="node24" class="node"><title>prior_engine__SoilMoisturePrior____init__</title>
<ellipse fill="#ff9999" fill-opacity="0.698039" stroke="black" cx="966" cy="-331.09" rx="96.3333" ry="26.7407"/>
<text text-anchor="middle" x="966" y="-334.89" font-family="Times,serif" font-size="14.00" fill="#000000">__init__</text>
<text text-anchor="middle" x="966" y="-319.89" font-family="Times,serif" font-size="14.00" fill="#000000">(prior_engine.py:191)</text>
</g>
<!-- prior_engine__SoilMoisturePrior____init__&#45;&gt;prior_engine__Prior____init__ -->
<g id="edge15" class="edge"><title>prior_engine__SoilMoisturePrior____init__&#45;&gt;prior_engine__Prior____init__</title>
<path fill="none" stroke="#000000" d="M908.879,-309.352C892.305,-302.957 874.289,-295.637 858,-288.22 838.949,-279.546 818.52,-269.099 800.613,-259.538"/>
<polygon fill="#000000" stroke="#000000" points="801.964,-256.29 791.5,-254.633 798.647,-262.454 801.964,-256.29"/>
</g>
<!-- prior_engine__SoilMoisturePrior___calc_climatological_prior -->
<g id="node25" class="node"><title>prior_engine__SoilMoisturePrior___calc_climatological_prior</title>
<ellipse fill="#ff9999" fill-opacity="0.698039" stroke="black" cx="1375" cy="-230.35" rx="115.017" ry="26.7407"/>
<text text-anchor="middle" x="1375" y="-234.15" font-family="Times,serif" font-size="14.00" fill="#000000">_calc_climatological_prior</text>
<text text-anchor="middle" x="1375" y="-219.15" font-family="Times,serif" font-size="14.00" fill="#000000">(prior_engine.py:280)</text>
</g>
<!-- prior_engine__SoilMoisturePrior___extract_climatology -->
<g id="node26" class="node"><title>prior_engine__SoilMoisturePrior___extract_climatology</title>
<ellipse fill="#ff9999" fill-opacity="0.698039" stroke="black" cx="1173" cy="-140.61" rx="96.3333" ry="26.7407"/>
<text text-anchor="middle" x="1173" y="-144.41" font-family="Times,serif" font-size="14.00" fill="#000000">_extract_climatology</text>
<text text-anchor="middle" x="1173" y="-129.41" font-family="Times,serif" font-size="14.00" fill="#000000">(prior_engine.py:223)</text>
</g>
<!-- prior_engine__SoilMoisturePrior___calc_climatological_prior&#45;&gt;prior_engine__SoilMoisturePrior___extract_climatology -->
<g id="edge5" class="edge"><title>prior_engine__SoilMoisturePrior___calc_climatological_prior&#45;&gt;prior_engine__SoilMoisturePrior___extract_climatology</title>
<path fill="none" stroke="#000000" d="M1322.19,-206.412C1294.78,-194.506 1261.18,-179.913 1232.82,-167.592"/>
<polygon fill="#000000" stroke="#000000" points="1233.98,-164.281 1223.41,-163.507 1231.19,-170.702 1233.98,-164.281"/>
</g>
<!-- prior_engine__SoilMoisturePrior___get_climatology_file -->
<g id="node27" class="node"><title>prior_engine__SoilMoisturePrior___get_climatology_file</title>
<ellipse fill="#ff9999" fill-opacity="0.698039" stroke="black" cx="1384" cy="-140.61" rx="96.7474" ry="26.7407"/>
<text text-anchor="middle" x="1384" y="-144.41" font-family="Times,serif" font-size="14.00" fill="#000000">_get_climatology_file</text>
<text text-anchor="middle" x="1384" y="-129.41" font-family="Times,serif" font-size="14.00" fill="#000000">(prior_engine.py:208)</text>
</g>
<!-- prior_engine__SoilMoisturePrior___calc_climatological_prior&#45;&gt;prior_engine__SoilMoisturePrior___get_climatology_file -->
<g id="edge4" class="edge"><title>prior_engine__SoilMoisturePrior___calc_climatological_prior&#45;&gt;prior_engine__SoilMoisturePrior___get_climatology_file</title>
<path fill="none" stroke="#000000" d="M1377.7,-203.025C1378.52,-195.059 1379.43,-186.168 1380.3,-177.679"/>
<polygon fill="#000000" stroke="#000000" points="1383.79,-177.919 1381.33,-167.614 1376.83,-177.205 1383.79,-177.919"/>
</g>
<!-- prior_engine__SoilMoisturePrior___get_recent_sm_proxy -->
<g id="node28" class="node"><title>prior_engine__SoilMoisturePrior___get_recent_sm_proxy</title>
<ellipse fill="#ff9999" fill-opacity="0.698039" stroke="black" cx="1180" cy="-331.09" rx="99.9045" ry="26.7407"/>
<text text-anchor="middle" x="1180" y="-334.89" font-family="Times,serif" font-size="14.00" fill="#000000">_get_recent_sm_proxy</text>
<text text-anchor="middle" x="1180" y="-319.89" font-family="Times,serif" font-size="14.00" fill="#000000">(prior_engine.py:338)</text>
</g>
<!-- prior_engine__SoilMoisturePrior__initialize -->
<g id="node29" class="node"><title>prior_engine__SoilMoisturePrior__initialize</title>
<ellipse fill="#ff9999" fill-opacity="0.698039" stroke="black" cx="1394" cy="-331.09" rx="96.3333" ry="26.7407"/>
<text text-anchor="middle" x="1394" y="-334.89" font-family="Times,serif" font-size="14.00" fill="#000000">initialize</text>
<text text-anchor="middle" x="1394" y="-319.89" font-family="Times,serif" font-size="14.00" fill="#000000">(prior_engine.py:194)</text>
</g>
<!-- prior_engine__SoilMoisturePrior__initialize&#45;&gt;prior_engine__SoilMoisturePrior___calc_climatological_prior -->
<g id="edge23" class="edge"><title>prior_engine__SoilMoisturePrior__initialize&#45;&gt;prior_engine__SoilMoisturePrior___calc_climatological_prior</title>
<path fill="none" stroke="#000000" d="M1389.01,-304.148C1386.84,-292.898 1384.27,-279.537 1381.93,-267.35"/>
<polygon fill="#000000" stroke="#000000" points="1385.35,-266.621 1380.02,-257.463 1378.48,-267.944 1385.35,-266.621"/>
</g>
</g>
</svg>
